<svg width="162" height="87" viewBox="0 0 162 87" fill="none" xmlns="http://www.w3.org/2000/svg">
<path d="M151.324 42.3306C140.4 39.3155 134.274 37.3509 123.348 33.8976L123.03 36.8168C135.665 40.3916 141.903 41.6381 151.324 42.3306Z" fill="#D9D9D9"/>
<path d="M123.348 33.8976C108.781 29.9106 101.699 28.7234 91.2394 28.7081V31.3028C101.582 31.3897 108.755 32.8092 123.03 36.8167L123.348 33.8976Z" fill="#D9D9D9"/>
<path d="M91.2394 28.7081C81.9444 28.8426 77.0384 29.414 69.6217 32.6002L71.5292 34.5463C78.5879 31.9595 82.8726 31.1855 91.2394 31.3028V28.7081Z" fill="#D9D9D9"/>
<path d="M69.6218 32.6001L48.6399 42.3305H54.6801L71.5292 34.5462L69.6218 32.6001Z" fill="#D9D9D9"/>
<path d="M88.6962 45.2497C75.5297 42.9873 68.15 42.1424 54.998 42.3305V44.9253L88.6962 45.2497Z" fill="#D9D9D9"/>
<path d="M48.322 42.3306C37.8257 44.213 32.033 45.3746 22.8894 48.8175L23.8431 51.088C32.9478 48.0445 38.4762 46.8042 48.6399 44.9254L48.322 42.3306Z" fill="#D9D9D9"/>
<path d="M22.8893 48.8174C14.7286 52.4968 7.995 55.3441 0 64.7104L2.54326 66.0078C7.98242 59.5849 12.5745 56.3019 23.8431 51.0879L22.8893 48.8174Z" fill="#D9D9D9"/>
<path d="M135.746 46.547C127.997 46.2782 124.141 46.3076 119.533 47.1957L119.851 48.8174C124.934 47.1644 128.551 46.8467 135.746 46.8714V46.547Z" fill="#D9D9D9"/>
<path d="M2.54326 65.6835C2.18835 67.8162 3.35127 70.6504 5.72233 76.0626C2.14017 72.0735 0.743899 69.6352 0 64.7104L2.54326 65.6835Z" fill="#D9D9D9"/>
<path d="M119.533 47.1957C113.635 48.2825 109.807 49.9238 101.413 55.953L103.638 57.5748C109.936 52.8041 113.356 50.7445 119.851 48.8174L119.533 47.1957Z" fill="#D9D9D9"/>
<path d="M46.7757 68.9269C46.7757 77.2668 40.162 83.9416 32.1087 83.9416C24.0553 83.9416 17.4417 77.2668 17.4417 68.9269C17.4417 60.587 24.0553 53.9122 32.1087 53.9122C40.162 53.9122 46.7757 60.587 46.7757 68.9269Z" stroke="#E5E5E5" stroke-width="5"/>
<path d="M144.691 68.9269C144.691 77.2668 138.078 83.9416 130.024 83.9416C121.971 83.9416 115.357 77.2668 115.357 68.9269C115.357 60.587 121.971 53.9122 130.024 53.9122C138.078 53.9122 144.691 60.587 144.691 68.9269Z" stroke="#E5E5E5" stroke-width="5"/>
<rect x="46.7324" y="70.8732" width="69.3038" height="2.59477" fill="#D9D9D9"/>
<path d="M150.37 67.954C148.746 68.4148 148.062 68.9242 147.191 70.2244H146.555V66.9809L147.191 66.6566C148.395 65.5211 149.348 65.3732 151.006 65.0349H153.231C154.453 65.0627 154.781 64.8679 155.139 64.3862H157.682V65.0349C157.626 65.5497 157.568 65.8352 157.364 66.3322C156.796 66.9624 156.382 67.249 155.457 67.6296C152.657 67.6735 150.521 67.6403 150.37 67.954Z" fill="#D9D9D9"/>
<path d="M156.41 48.8174L157.787 64.3861H155.034L156.41 48.8174Z" fill="#D9D9D9"/>
<path d="M103.638 57.5749C96.4773 62.2625 91.9918 63.2659 83.6097 63.7374C91.2246 61.9599 95.1621 60.3307 101.413 55.9531L103.638 57.5749Z" fill="#D9D9D9"/>
<rect x="48.004" y="42.3306" width="6.99396" height="2.59477" fill="#D9D9D9"/>
<path d="M29.9006 19L25.4403 13.1193H24.8864V19H20.9375V4.45455H24.8864V9.9375H25.3977L29.5739 4.45455H34.5455L29.0057 11.4432L34.858 19H29.9006ZM49.0909 11.7273C49.0909 13.3466 48.776 14.7126 48.1463 15.8253C47.5166 16.9332 46.6667 17.7737 45.5966 18.3466C44.5265 18.9148 43.3333 19.1989 42.017 19.1989C40.6913 19.1989 39.4934 18.9124 38.4233 18.3395C37.358 17.7618 36.5104 16.919 35.8807 15.8111C35.2557 14.6984 34.9432 13.3371 34.9432 11.7273C34.9432 10.108 35.2557 8.74432 35.8807 7.63636C36.5104 6.52367 37.358 5.68324 38.4233 5.11506C39.4934 4.54214 40.6913 4.25568 42.017 4.25568C43.3333 4.25568 44.5265 4.54214 45.5966 5.11506C46.6667 5.68324 47.5166 6.52367 48.1463 7.63636C48.776 8.74432 49.0909 10.108 49.0909 11.7273ZM45.0284 11.7273C45.0284 10.8561 44.9124 10.1222 44.6804 9.52557C44.4531 8.92424 44.1146 8.4697 43.6648 8.16193C43.2197 7.84943 42.6705 7.69318 42.017 7.69318C41.3636 7.69318 40.812 7.84943 40.3622 8.16193C39.9171 8.4697 39.5786 8.92424 39.3466 9.52557C39.1193 10.1222 39.0057 10.8561 39.0057 11.7273C39.0057 12.5985 39.1193 13.3348 39.3466 13.9361C39.5786 14.5327 39.9171 14.9872 40.3622 15.2997C40.812 15.6075 41.3636 15.7614 42.017 15.7614C42.6705 15.7614 43.2197 15.6075 43.6648 15.2997C44.1146 14.9872 44.4531 14.5327 44.6804 13.9361C44.9124 13.3348 45.0284 12.5985 45.0284 11.7273ZM50.918 4.45455H55.8327L59.2134 12.6932H59.3839L62.7646 4.45455H67.6793V19H63.8157V10.5909H63.7021L60.4634 18.8864H58.1339L54.8952 10.5341H54.7816V19H50.918V4.45455ZM82.9031 4.45455V19H79.011V7.57955H74.0962V19H70.2042V4.45455H82.9031ZM84.9467 19V15.9602L85.3445 15.9034C85.8274 15.8277 86.2275 15.6193 86.5447 15.2784C86.8667 14.9328 87.1129 14.3859 87.2834 13.6378C87.4586 12.8849 87.5698 11.8598 87.6172 10.5625L87.8445 4.45455H98.3842V19H94.5774V7.52273H91.4808L91.2536 12.0966C91.1683 13.7917 90.9411 15.1435 90.5717 16.152C90.2024 17.1605 89.6413 17.8873 88.8885 18.3324C88.1357 18.7775 87.1437 19 85.9126 19H84.9467ZM100.254 19V4.45455H110.737V7.63636H104.203V10.1364H110.197V13.3182H104.203V15.8182H110.708V19H100.254ZM121.658 19L117.198 13.1193H116.644V19H112.695V4.45455H116.644V9.9375H117.156L121.332 4.45455H126.303L120.763 11.4432L126.616 19H121.658ZM140.337 9.90909H136.332C136.303 9.57765 136.228 9.27699 136.104 9.0071C135.986 8.73722 135.82 8.50521 135.607 8.31108C135.399 8.11222 135.146 7.9607 134.847 7.85653C134.549 7.74763 134.21 7.69318 133.832 7.69318C133.169 7.69318 132.608 7.85417 132.148 8.17614C131.694 8.49811 131.348 8.95975 131.112 9.56108C130.879 10.1624 130.763 10.8845 130.763 11.7273C130.763 12.6174 130.882 13.3632 131.119 13.9645C131.36 14.5611 131.708 15.0109 132.163 15.3139C132.617 15.6122 133.164 15.7614 133.803 15.7614C134.168 15.7614 134.495 15.7164 134.783 15.6264C135.072 15.5317 135.323 15.3968 135.536 15.2216C135.749 15.0464 135.922 14.8357 136.055 14.5895C136.192 14.3385 136.284 14.0568 136.332 13.7443L140.337 13.7727C140.29 14.3883 140.117 15.0156 139.819 15.6548C139.521 16.2893 139.097 16.8764 138.548 17.4162C138.003 17.9512 137.328 18.3821 136.523 18.7088C135.719 19.0355 134.783 19.1989 133.718 19.1989C132.383 19.1989 131.185 18.9124 130.124 18.3395C129.068 17.7666 128.233 16.9238 127.617 15.8111C127.006 14.6984 126.701 13.3371 126.701 11.7273C126.701 10.108 127.013 8.74432 127.638 7.63636C128.263 6.52367 129.106 5.68324 130.167 5.11506C131.228 4.54214 132.411 4.25568 133.718 4.25568C134.637 4.25568 135.482 4.38115 136.254 4.6321C137.025 4.88305 137.702 5.25 138.285 5.73295C138.867 6.21117 139.336 6.80066 139.691 7.50142C140.046 8.20218 140.262 9.00473 140.337 9.90909Z" fill="#D9D9D9"/>
</svg>
